<?xml version="1.0" encoding="UTF-8"?>
<svg width="10px" height="10px" viewBox="0 0 10 10" version="1.1" xmlns="http://www.w3.org/2000/svg" xmlns:xlink="http://www.w3.org/1999/xlink">
    <title>108BB54C-887F-4386-9136-29536900F2D9</title>
    <defs>
        <path d="M7.18421053,1.96224256 C7.2314986,1.96224256 7.2768659,1.97032884 7.31896026,1.98517184 C7.32467237,1.9871928 7.33058821,1.98942758 7.33645807,1.99180584 C7.34432714,1.99500568 7.3518763,1.99835322 7.35929629,2.00192042 C7.39770406,2.0202705 7.4341462,2.04544122 7.46643297,2.07718807 C7.50327851,2.11341747 7.53295354,2.15669746 7.55318532,2.20479332 C7.56341805,2.22920061 7.57101295,2.25427112 7.57602706,2.27973579 L7.58333333,2.35469108 L7.58333333,5.88672769 C7.58333333,6.10347102 7.40463997,6.2791762 7.18421053,6.2791762 C6.96378109,6.2791762 6.78508772,6.10347102 6.78508772,5.88672769 L6.78508772,5.88672769 L6.78461404,3.30124256 L2.67695929,7.34157623 C2.54057553,7.47567932 2.33004602,7.49244221 2.17512582,7.39186489 L2.1125144,7.34157623 C1.95664725,7.18831555 1.95664725,6.9398309 2.1125144,6.78657022 L2.1125144,6.78657022 L6.22061404,2.74624256 L3.59210526,2.74713959 C3.3992295,2.74713959 3.23830792,2.61261531 3.20109121,2.43378314 L3.19298246,2.35469108 C3.19298246,2.13794775 3.37167582,1.96224256 3.59210526,1.96224256 L3.59210526,1.96224256 Z" id="path-1"></path>
        <rect id="path-3" x="0" y="0" width="9.57894737" height="9.4187643"></rect>
        <mask id="mask-4" maskContentUnits="userSpaceOnUse" maskUnits="objectBoundingBox" x="0" y="0" width="9.57894737" height="9.4187643" fill="white">
            <use xlink:href="#path-3"></use>
        </mask>
    </defs>
    <g id="Page-1-Copy" stroke="none" stroke-width="1" fill="none" fill-rule="evenodd">
        <g id="Desktop-HD-Copy-3" transform="translate(-835.000000, -118.000000)">
            <g id="MODULE/Market-Ticker-Group" transform="translate(324.000000, 71.000000)">
                <g id="MODULE/-Market-Ticker-Small" transform="translate(372.000000, 4.500000)">
                    <g id="MODULE/Icon-set-vertical" transform="translate(138.000000, 26.000000)">
                        <g id="icon-3" transform="translate(0.000000, 14.608696)">
                            <g id="ICON/arrow-up-right" transform="translate(1.368421, 2.018307)">
                                <mask id="mask-2" fill="white">
                                    <use xlink:href="#path-1"></use>
                                </mask>
                                <use id="Combined-Shape" fill="#000000" fill-rule="nonzero" xlink:href="#path-1"></use>
                                <g id="COLOR/BASE" mask="url(#mask-2)" fill="#1A1F36" stroke="#979797" stroke-dasharray="2" stroke-opacity="0.264605978" stroke-width="2">
                                    <use id="Custom-color-3" mask="url(#mask-4)" xlink:href="#path-3"></use>
                                </g>
                            </g>
                        </g>
                    </g>
                </g>
            </g>
        </g>
    </g>
</svg>