<?xml version="1.0" encoding="UTF-8"?>
<svg width="11px" height="11px" viewBox="0 0 11 11" version="1.1" xmlns="http://www.w3.org/2000/svg" xmlns:xlink="http://www.w3.org/1999/xlink">
    <title>E795634A-7A8D-4D6E-BE19-8FC57D381CC8</title>
    <defs>
        <path d="M5.13157895,0.420480549 C7.72949734,0.420480549 9.83552632,2.49129165 9.83552632,5.04576659 C9.83552632,7.60024153 7.72949734,9.67105263 5.13157895,9.67105263 C2.53366055,9.67105263 0.427631579,7.60024153 0.427631579,5.04576659 C0.427631579,2.49129165 2.53366055,0.420480549 5.13157895,0.420480549 Z M5.13157895,1.26144165 C3.00600935,1.26144165 1.28289474,2.95574164 1.28289474,5.04576659 C1.28289474,7.13579154 3.00600935,8.83009153 5.13157895,8.83009153 C7.25714854,8.83009153 8.98026316,7.13579154 8.98026316,5.04576659 C8.98026316,2.95574164 7.25714854,1.26144165 5.13157895,1.26144165 Z M4.82919776,6.00988359 C4.99619828,5.84567572 5.26695962,5.84567572 5.43396014,6.00988359 C5.60096066,6.17409146 5.60096066,6.44032502 5.43396014,6.60453289 C5.26695962,6.76874075 4.99619828,6.76874075 4.82919776,6.60453289 C4.66219724,6.44032502 4.66219724,6.17409146 4.82919776,6.00988359 Z M5.13157895,2.94336384 C5.36775335,2.94336384 5.55921053,3.1316194 5.55921053,3.36384439 L5.55921053,3.36384439 L5.55921053,5.04576659 C5.55921053,5.27799159 5.36775335,5.46624714 5.13157895,5.46624714 C4.89540455,5.46624714 4.70394737,5.27799159 4.70394737,5.04576659 L4.70394737,5.04576659 L4.70394737,3.36384439 C4.70394737,3.1316194 4.89540455,2.94336384 5.13157895,2.94336384 Z" id="path-1"></path>
        <rect id="path-3" x="0" y="0" width="10.2631579" height="10.0915332"></rect>
        <mask id="mask-4" maskContentUnits="userSpaceOnUse" maskUnits="objectBoundingBox" x="0" y="0" width="10.2631579" height="10.0915332" fill="white">
            <use xlink:href="#path-3"></use>
        </mask>
    </defs>
    <g id="Page-1-Copy" stroke="none" stroke-width="1" fill="none" fill-rule="evenodd">
        <g id="Desktop-HD-Copy-3" transform="translate(-835.000000, -102.000000)">
            <g id="MODULE/Market-Ticker-Group" transform="translate(324.000000, 71.000000)">
                <g id="MODULE/-Market-Ticker-Small" transform="translate(372.000000, 4.500000)">
                    <g id="MODULE/Icon-set-vertical" transform="translate(138.000000, 26.000000)">
                        <g id="ICON/alert-circle" transform="translate(1.368421, 1.345538)">
                            <mask id="mask-2" fill="white">
                                <use xlink:href="#path-1"></use>
                            </mask>
                            <use id="Combined-Shape" fill="#000000" fill-rule="nonzero" xlink:href="#path-1"></use>
                            <g id="COLOR/BASE" mask="url(#mask-2)" fill="#1A1F36" stroke="#979797" stroke-dasharray="2" stroke-opacity="0.264605978" stroke-width="2">
                                <use id="Custom-color-3" mask="url(#mask-4)" xlink:href="#path-3"></use>
                            </g>
                        </g>
                    </g>
                </g>
            </g>
        </g>
    </g>
</svg>